<svg xmlns="http://www.w3.org/2000/svg" xmlns:xlink="http://www.w3.org/1999/xlink" width="1500" height="1500" viewBox="0 0 1500 1500">
  <defs>
    <clipPath id="clip-undraw_collaborating_re_l43g">
      <rect width="1500" height="1500"/>
    </clipPath>
  </defs>
  <g id="undraw_collaborating_re_l43g" clip-path="url(#clip-undraw_collaborating_re_l43g)">
    <rect width="1500" height="1500" fill="#fff"/>
    <g id="undraw_collaborating_re_l43g-2" data-name="undraw_collaborating_re_l43g">
      <circle id="Ellipse_83" data-name="Ellipse 83" cx="8.278" cy="8.278" r="8.278" transform="translate(240.934 96.086)" fill="#f2f2f2"/>
      <path id="Path_378" data-name="Path 378" d="M679.541,814.774a6.762,6.762,0,0,1-4.9-11.72l.463-1.842a18.167,18.167,0,0,0-33.681-.318c-8.014,18.759-18.386,38.178-13.228,58.839-34.072-72.211-22.485-162.036,27.869-223.79,13.918-7.667,25.2-21.289,28.136-37.106-6.888,2.334-15.477-3.269-10.3-10.525,2.245-2.773,4.512-5.524,6.756-8.3-26.166-27.867-57.343,15.93-28.542,53.542a216.8,216.8,0,0,0-24.35,38.088,91.156,91.156,0,0,0-5.442-42.341c-5.209-12.567-14.973-23.15-23.571-34.014-10.454-13.237-31.97-7.13-33.377,9.668,9.648,3.171,10.9,17.107-.135,19.015,2.891,31.25,23.306,59.968,51.425,73.673a217.648,217.648,0,0,0-11.894,90.975c-4.963-36.026-43.635-44.768-70.664-59.087A10.529,10.529,0,0,0,518.052,740.2a60.8,60.8,0,0,1,10.66,5.624,9.191,9.191,0,0,1-4.27,16.779c13.625,33.72,48.85,56.364,85.028,56.236a223.751,223.751,0,0,0,15.031,43.88h53.7c.193-.6.366-1.213.539-1.809a61,61,0,0,1-14.858-.885c13.15-15.569,23.319-23.512,15.666-45.247Z" transform="translate(78.309 405.831)" fill="#ff8e28"/>
      <path id="Path_379" data-name="Path 379" d="M978.321,201.19H514.592a15.113,15.113,0,1,1,0-30.227H978.321a15.113,15.113,0,0,1,0,30.227Z" transform="translate(62.259 57.037)" fill="#e8cfbe"/>
      <path id="Path_380" data-name="Path 380" d="M978.321,244.19H514.592a15.113,15.113,0,1,1,0-30.227H978.321a15.113,15.113,0,0,1,0,30.227Z" transform="translate(62.259 94.51)" fill="#e8cfbe"/>
      <path id="Path_381" data-name="Path 381" d="M869.109,551.557,666.96,556.775a15.925,15.925,0,0,1-16.313-15.492l-2.6-100.614a15.925,15.925,0,0,1,15.492-16.313l202.149-5.218A15.925,15.925,0,0,1,882,434.63l2.6,100.614a15.925,15.925,0,0,1-15.492,16.313Z" transform="translate(191.729 273.31)" fill="#fff"/>
      <path id="Path_382" data-name="Path 382" d="M870.029,554.3,667.88,559.517A17.8,17.8,0,0,1,649.648,542.2l-2.6-100.614a17.8,17.8,0,0,1,17.314-18.232l202.149-5.218a17.8,17.8,0,0,1,18.232,17.314l2.6,100.614A17.8,17.8,0,0,1,870.029,554.3ZM664.462,427.1a14.051,14.051,0,0,0-13.669,14.394l2.6,100.614a14.052,14.052,0,0,0,14.393,13.669l202.149-5.218A14.051,14.051,0,0,0,883.6,536.164L881,435.55a14.051,14.051,0,0,0-14.393-13.669Z" transform="translate(190.858 272.439)" fill="#e8cfbe"/>
      <path id="Path_383" data-name="Path 383" d="M704.052,507.826a6.8,6.8,0,0,1-3.3-.769,6.711,6.711,0,0,1-3.678-5.866l-1.45-56.151a6.8,6.8,0,0,1,10.293-6.007l53.99,26.7a6.8,6.8,0,0,1,.3,11.475l-52.54,29.451a6.766,6.766,0,0,1-3.611,1.168Z" transform="translate(233.19 289.808)" fill="#e8cfbe"/>
      <circle id="Ellipse_160" data-name="Ellipse 160" cx="87.959" cy="87.959" r="87.959" transform="translate(720.756 413.286)" fill="#f8eee7"/>
      <path id="Path_384" data-name="Path 384" d="M633.192,386.073a3.743,3.743,0,0,1-3.743-3.743V295.711a3.743,3.743,0,0,1,7.486,0V382.33a3.743,3.743,0,0,1-3.743,3.743Z" transform="translate(175.523 162.49)" fill="#fff"/>
      <path id="Path_385" data-name="Path 385" d="M696.668,322.6H610.05a3.743,3.743,0,0,1,0-7.486h86.618a3.743,3.743,0,0,1,0,7.486Z" transform="translate(155.355 182.657)" fill="#fff"/>
      <path id="Path_386" data-name="Path 386" d="M528.166,547.4H378.449V378.968H528.166C511.815,400.953,519.906,474,528.166,547.4Z" transform="translate(-43.216 238.307)" fill="#ffb6b6"/>
      <path id="Path_387" data-name="Path 387" d="M234.481,576.065H261.43l12.821-103.951-39.776,0Z" transform="translate(251.338 639.433)" fill="#c95636"/>
      <path id="Path_388" data-name="Path 388" d="M500.445,708.426v-18.27l-7.085.433L464.52,692.3l-6.675.41-5.1,61.189-.273,3.281H471.6l.615-3.258L475,739.112l7.176,14.807,1.572,3.258h50.732a11.463,11.463,0,0,0,11.39-11.413C548.011,735.763,505.821,714.144,500.445,708.426Z" transform="translate(21.291 509.498)"/>
      <path id="Path_389" data-name="Path 389" d="M65.771,554.087l23.44,13.3L151.66,483.3l-34.594-19.628Z" transform="translate(104.317 632.077)" fill="#c95636"/>
      <path id="Path_390" data-name="Path 390" d="M336.9,709.7l9-15.878-6.333-3.121-25.947-12.734L307.6,675l-29.546,43.26-6.948,10.16,7.859,4.465,8.771,4.989,11.891-14.033-1.321,20.024L339.748,767.4h.023l2.665,1.5a11.409,11.409,0,0,0,15.536-4.306C364.761,756.943,338.745,717.35,336.9,709.7Z" transform="translate(-136.758 496.291)"/>
      <path id="Path_391" data-name="Path 391" d="M433.724,430.326C397.61,454.257,384.317,684.172,393.7,680.419L308.579,839.053l121.157,54.31L509.4,616.756l13.277,101.791-17.7,161.538,78.314,18.939,54.168-3.869C623.379,702.6,610.694,499.523,581.57,420.968Z" transform="translate(-104.104 274.909)" fill="#3c7745"/>
      <path id="Path_392" data-name="Path 392" d="M493.6,281.244s-40.093-5.186-52.308-.3c-4.346,1.738-8.693,17.7-16.843,22.458-14.757,8.609-26.8,7.159-26.8,7.159,5.764,73.4,5.451,130.333-29.036,236.654a15.717,15.717,0,0,0,22.7,14.269L533,550.436l16.8-88.406,21.987-46.418-28.487-58.633-2.443-34.2-35.926-17.5Z" transform="translate(-51.787 151.056)" fill="#ff8e28"/>
      <path id="Path_9" data-name="Path 9" d="M504.124,331.088l.043,0a8.723,8.723,0,0,0,9.442-7.94l4.219-48.5a65.059,65.059,0,0,0-2.912-25.74,66.109,66.109,0,0,0-31.578-37.795,65.1,65.1,0,0,0-25.005-7.466c-35.812-3.172-48.841,4.368-70.587,59.1s-4.226,48.574-4.226,48.574a8.737,8.737,0,0,0,.392,3.463,8.881,8.881,0,0,0,4.254,5.077,8.767,8.767,0,0,0,3.344,1c42.382,10.474,85.15,21.512,112.62,10.228Z" transform="translate(-44.609 84.986)"/>
      <path id="Ellipse_1" data-name="Ellipse 1" d="M406.237,237.89a47.988,47.988,0,0,0,49.29,73.675,47.43,47.43,0,0,0,30.4-20.3,47.988,47.988,0,0,0-49.254-73.654,47.429,47.429,0,0,0-30.44,20.278Z" transform="translate(-26.016 96.898)" fill="#c95636"/>
      <path id="Path_10" data-name="Path 10" d="M512.67,270.782a51.466,51.466,0,0,0-2.3-20.357c-.589-16.085-5.353-30.625-24.971-29.884a51.487,51.487,0,0,0-19.645-5.886l-9.7-.893-.327-.029A51.378,51.378,0,0,0,400.11,260.5l-.085.971,20.528,1.87,8.7-18.953-.3,19.722,10.6.97,4.389-9.562-.151,9.944c15.824,13.751,39.684,14.319,68.783,6.295Z" transform="translate(-24.412 94.141)"/>
      <path id="Path_13" data-name="Path 13" d="M453.57,309.656a8.584,8.584,0,0,1-.769,4.664,8.78,8.78,0,0,1-1.334,2.054,8.884,8.884,0,0,1-1.553,1.4,8.708,8.708,0,0,1-5.816,1.559q-.193-.019-.385-.044t-.383-.061q-.193-.033-.384-.077t-.382-.095l-7.173-1.959-8.173-22.321-1.709,19.645-32.618-8.849,7.253-83.365,55.529,5.1-1.512,1.476a38.355,38.355,0,0,0-10.287,18.049,62.52,62.52,0,0,0-1.443,21.221,112.748,112.748,0,0,0,4.115,21.205,166.187,166.187,0,0,0,6.392,18.031A8.767,8.767,0,0,1,453.57,309.656Z" transform="translate(-30.629 101.697)"/>
      <path id="Path_393" data-name="Path 393" d="M393.817,712.149,353.03,466.868a19,19,0,0,1,15.611-21.839l185.241-30.8a19,19,0,0,1,21.839,15.611l40.787,245.281A19,19,0,0,1,600.9,696.957l-185.241,30.8a19,19,0,0,1-21.839-15.611Z" transform="translate(-65.591 268.81)" fill="#f8eee7"/>
      <path id="Path_394" data-name="Path 394" d="M388.037,627.842,361.815,470.154a17.8,17.8,0,0,1,14.62-20.453l159.2-26.473a17.8,17.8,0,0,1,20.454,14.62l36.295,218.266a17.8,17.8,0,0,1-14.621,20.453l-98.621,16.4a79.277,79.277,0,0,1-91.1-65.125Z" transform="translate(-57.921 276.669)" fill="#fff"/>
      <path id="Path_395" data-name="Path 395" d="M379.5,487.379a17.391,17.391,0,0,1,14.287-19.986l110.436-18.364a17.372,17.372,0,0,1,5.7,34.273L399.482,501.666A17.391,17.391,0,0,1,379.5,487.379Z" transform="translate(-42.508 299.155)" fill="#e8cfbe"/>
      <path id="Path_396" data-name="Path 396" d="M384.233,515.867A17.391,17.391,0,0,1,398.52,495.88l110.436-18.364a17.372,17.372,0,0,1,5.7,34.273L404.219,530.154A17.391,17.391,0,0,1,384.233,515.867Z" transform="translate(-38.38 323.981)" fill="#e8cfbe"/>
      <path id="Path_397" data-name="Path 397" d="M388.97,544.354a17.391,17.391,0,0,1,14.287-19.986L513.693,506a17.372,17.372,0,1,1,5.7,34.273L408.956,558.642A17.391,17.391,0,0,1,388.97,544.354Z" transform="translate(-34.252 348.808)" fill="#e8cfbe"/>
      <path id="Path_398" data-name="Path 398" d="M378.742,520.316a19.742,19.742,0,0,0-3.1-29.906l19.44-96.458-25.358-11.937L347.477,496.749a19.714,19.714,0,0,0,31.266,23.567Z" transform="translate(-72.546 240.963)" fill="#c95636"/>
      <path id="Path_399" data-name="Path 399" d="M414.079,295.968s-44.574,16.774-47.017,41.2-8.057,46.206-5.614,55.978-8.4,20.877-3.512,28.206-6.831,9.739-1.945,21.955,7.329,14.658,4.886,17.1-10.427,52.646-10.427,52.646l34.7,7.7,45.275-102.967Z" transform="translate(-67.616 165.976)" fill="#ff8e28"/>
      <path id="Path_400" data-name="Path 400" d="M478.575,520.316a19.742,19.742,0,0,1,3.1-29.906l-19.44-96.458,25.358-11.937,22.251,114.733a19.714,19.714,0,0,1-31.266,23.567Z" transform="translate(29.799 240.963)" fill="#c95636"/>
      <path id="Path_401" data-name="Path 401" d="M455.424,301.015a26.036,26.036,0,0,1,21.987,14.658c7.329,14.658,34.775,107.056,32.332,114.386s8.628,31,3.742,35.885-9.356,33.36-9.356,33.36l-35.6,8.172L457.037,398.737Z" transform="translate(23.866 170.374)" fill="#ff8e28"/>
      <path id="Path_402" data-name="Path 402" d="M905.23,517.421a17.029,17.029,0,0,1,14.437-21.757l13.366-59.019,21.78,22.683-16.031,52.568a17.121,17.121,0,0,1-33.551,5.526Z" transform="translate(415.248 288.57)" fill="#c95636"/>
      <path id="Path_403" data-name="Path 403" d="M955.349,285.52l1.071,5.073,55.792,170.681-37.528,152.1L943.966,599.01l7.242-134.852C896.079,390.55,879.864,363.908,884.671,287.3Z" transform="translate(397.244 156.87)" fill="#b8c7d7"/>
      <path id="Path_404" data-name="Path 404" d="M691.085,590.835l-27.445,0L650.583,484.968l40.508,0Z" transform="translate(613.963 650.634)" fill="#c95636"/>
      <path id="Path_405" data-name="Path 405" d="M936.477,749.04l-84.4,0v-1.067a32.852,32.852,0,0,1,32.848-32.85h0l15.417-11.7,28.764,11.7h7.368Z" transform="translate(369.537 521.06)"/>
      <path id="Path_406" data-name="Path 406" d="M610.491,590.835l-27.445,0L569.989,484.968l40.508,0Z" transform="translate(543.728 650.634)" fill="#c95636"/>
      <path id="Path_407" data-name="Path 407" d="M855.883,749.04l-84.4,0v-1.067a32.852,32.852,0,0,1,32.848-32.85h0l15.417-11.7,28.764,11.7h7.368Z" transform="translate(299.303 521.06)"/>
      <path id="Path_408" data-name="Path 408" d="M1021.252,458.208s10.826,25.713,0,67.664-13.533,147.508-13.533,147.508L990.365,910.414h-45.9l-1.7-170.723L919.755,555.644,873.743,730.218s-17.593,129.916-24.359,135.329-9.849,43.228-9.849,43.228c-13.908,2.084-35.064-3.355-47.544-9.837,5.143-2.224,26.945-434.329,27.621-440.73C822.253,433.174,1021.252,458.208,1021.252,458.208Z" transform="translate(317.174 297.666)" fill="#3c7745"/>
      <path id="Path_409" data-name="Path 409" d="M720.906,456.853a17.029,17.029,0,0,0,18.361-18.565l55.06-25.105-26.643-16.7-48.2,26.4a17.121,17.121,0,0,0,1.423,33.973Z" transform="translate(241.441 253.567)" fill="#c95636"/>
      <path id="Path_410" data-name="Path 410" d="M912.452,355.924l18.7,7.225L878.759,467.335l-137.2,75.618-10.287-32.311,103.984-86.167c36.372-105.814,58.226-153.093,84.473-152.445Z" transform="translate(264.256 145.107)" fill="#b8c7d7"/>
      <path id="Path_411" data-name="Path 411" d="M830.933,310.208a38.543,38.543,0,0,1,39.491-28.057l.419.03c11.69.888,26.652-27.477,42.148-26.27,10.9.849,22.071,1.729,32.549,2.572,9.337.751,18.127,30.983,25.695,31.627,14.295,1.217,17.67,2.157,18.691,2.5,4.06,1.353,19.676,2.422,29.513,13.9,4.4,5.137,21.912,53.766,11.086,105.191s-23.212,118.04-23.212,118.04,10.824,32.175,5.411,45.708,5.413,23.006,5.413,28.419-2.707,32.479-2.707,32.479-192.781,20.461-209.759,0c-.557-.671,22.52-112.838,12.966-203.01C813.391,383.833,823.166,337.463,830.933,310.208Z" transform="translate(329.086 131.034)" fill="#b8c7d7"/>
      <circle id="Ellipse_161" data-name="Ellipse 161" cx="55.694" cy="55.694" r="55.694" transform="translate(1201.825 269.667)" fill="#c95636"/>
      <path id="Path_412" data-name="Path 412" d="M862.308,196.6c3.992-.119,2.621-7.642,5.837-10.043q.023.109.049.218a7.838,7.838,0,0,0,14.979.639,11.914,11.914,0,0,1,7.564-7.935c.2,6.974,5.475,13.026,11.768,16.038s13.468,3.513,20.444,3.616S937,199,943.767,200.71s13.344,5.72,16.234,12.07.828,15.092-5.492,18.048c4.9.026,9.05,4.066,10.743,8.66s1.434,9.649,1.062,14.53c-1.376,18.009-4.731,37.4-17.844,49.819-9.995,9.466-24.3,13.279-38.066,13.224s-11.345-1.32-24.655-4.834c0,0-12.654-36.276-9.468-39.845s5.833-8.135,5.256-12.884-5.681-9-10.11-7.2c.745-1.9,1.306-2.267,1.657-2.17a16.794,16.794,0,0,1-.585-1.655,18.833,18.833,0,0,0-11.762-12.473,14.606,14.606,0,0,0-15.964,4.831C830.2,227.168,839.242,197.285,862.308,196.6Z" transform="translate(357.021 64.459)" fill="#2f2e41"/>
      <path id="Path_413" data-name="Path 413" d="M1627.925,730.8l-1401.262.575a2.228,2.228,0,1,1,0-4.457l1401.262-.575a2.228,2.228,0,0,1,0,4.457Z" transform="translate(-177.435 541.038)" fill="#918b87"/>
      <circle id="Ellipse_204" data-name="Ellipse 204" cx="5.5" cy="5.5" r="5.5" transform="translate(440 376)"/>
      <circle id="Ellipse_205" data-name="Ellipse 205" cx="5.5" cy="5.5" r="5.5" transform="translate(1208 320)"/>
      <rect id="Rectangle_89" data-name="Rectangle 89" width="1500" height="1500" opacity="0"/>
    </g>
  </g>
</svg>
